G04 #@! TF.FileFunction,Soldermask,Top*
%FSLAX46Y46*%
G04 Gerber Fmt 4.6, Leading zero omitted, Abs format (unit mm)*
G04 Created by KiCad (PCBNEW 4.0.6) date 07/30/17 21:30:07*
%MOMM*%
%LPD*%
G01*
G04 APERTURE LIST*
%ADD10C,0.100000*%
%ADD11C,3.200000*%
%ADD12R,1.300000X0.700000*%
%ADD13R,1.700000X1.700000*%
%ADD14O,1.700000X1.700000*%
%ADD15R,1.000000X1.250000*%
%ADD16R,0.700000X1.300000*%
%ADD17O,5.199380X2.598420*%
%ADD18C,3.997960*%
%ADD19C,2.499360*%
%ADD20R,0.900000X0.800000*%
%ADD21R,1.800000X1.800000*%
%ADD22O,1.800000X1.800000*%
%ADD23C,1.422400*%
%ADD24R,2.800000X2.400000*%
%ADD25R,1.397000X0.348000*%
%ADD26R,0.650000X0.400000*%
%ADD27C,1.520000*%
%ADD28C,2.700000*%
%ADD29R,1.200000X1.200000*%
G04 APERTURE END LIST*
D10*
D11*
X208000000Y-44000000D03*
X250000000Y-44000000D03*
X250000000Y-86000000D03*
X208000000Y-86000000D03*
D12*
X239776000Y-83632000D03*
X239776000Y-85532000D03*
X237236000Y-83632000D03*
X237236000Y-85532000D03*
D13*
X233000000Y-68580000D03*
D14*
X233000000Y-71120000D03*
X233000000Y-73660000D03*
D15*
X226330000Y-79248000D03*
X228330000Y-79248000D03*
X223790000Y-58420000D03*
X225790000Y-58420000D03*
X223790000Y-53340000D03*
X225790000Y-53340000D03*
X234680000Y-60960000D03*
X232680000Y-60960000D03*
X223790000Y-60960000D03*
X225790000Y-60960000D03*
X225790000Y-50800000D03*
X223790000Y-50800000D03*
D13*
X240030000Y-43180000D03*
D14*
X237490000Y-43180000D03*
X234950000Y-43180000D03*
X232410000Y-43180000D03*
X229870000Y-43180000D03*
D16*
X223840000Y-55880000D03*
X225740000Y-55880000D03*
D13*
X250000000Y-60460000D03*
D14*
X250000000Y-63000000D03*
D13*
X250000000Y-52460000D03*
D14*
X250000000Y-55000000D03*
D17*
X222540000Y-79240000D03*
X222540000Y-74160000D03*
X222540000Y-69080000D03*
X222540000Y-64000000D03*
D18*
X212380000Y-76700000D03*
X212380000Y-66540000D03*
D19*
X220000000Y-81780000D03*
X220000000Y-61460000D03*
D20*
X244110000Y-53660000D03*
X244110000Y-55560000D03*
X246110000Y-54610000D03*
X244110000Y-60010000D03*
X244110000Y-61910000D03*
X246110000Y-60960000D03*
D12*
X240030000Y-52390000D03*
X240030000Y-54290000D03*
X225806000Y-85278000D03*
X225806000Y-83378000D03*
D21*
X228000000Y-69000000D03*
D22*
X228000000Y-71540000D03*
X228000000Y-74080000D03*
D23*
X239650000Y-78160000D03*
X237110000Y-76890000D03*
X239650000Y-75620000D03*
X237110000Y-74350000D03*
X239650000Y-73080000D03*
X237110000Y-71810000D03*
X239650000Y-70540000D03*
X237110000Y-69270000D03*
D24*
X209296000Y-63642000D03*
X215396000Y-63642000D03*
X209296000Y-75042000D03*
X215396000Y-75042000D03*
D25*
X230000000Y-58450000D03*
X230000000Y-57800000D03*
X230000000Y-57150000D03*
X230000000Y-56500000D03*
X230000000Y-55850000D03*
X230000000Y-55200000D03*
X230000000Y-54550000D03*
X230000000Y-53250000D03*
X230000000Y-53900000D03*
X230000000Y-52600000D03*
X230000000Y-51950000D03*
X230000000Y-51300000D03*
X230000000Y-50650000D03*
X230000000Y-50000000D03*
X237312000Y-58450000D03*
X237312000Y-57800000D03*
X237312000Y-57150000D03*
X237312000Y-56500000D03*
X237312000Y-55850000D03*
X237312000Y-55200000D03*
X237312000Y-54550000D03*
X237312000Y-53900000D03*
X237312000Y-53250000D03*
X237312000Y-52600000D03*
X237312000Y-51950000D03*
X237312000Y-51300000D03*
X237312000Y-50650000D03*
X237312000Y-50000000D03*
D26*
X240350000Y-57770000D03*
X240350000Y-59070000D03*
X242250000Y-58420000D03*
X240350000Y-58420000D03*
X242250000Y-59070000D03*
X242250000Y-57770000D03*
D27*
X219700000Y-51730000D03*
X219700000Y-54270000D03*
X217700000Y-54270000D03*
X217700000Y-51730000D03*
D28*
X215000000Y-47000000D03*
X215000000Y-59000000D03*
D29*
X223266000Y-83736000D03*
X223266000Y-85936000D03*
M02*
