G04 #@! TF.FileFunction,Copper,L2,Bot,Signal*
%FSLAX46Y46*%
G04 Gerber Fmt 4.6, Leading zero omitted, Abs format (unit mm)*
G04 Created by KiCad (PCBNEW 4.0.6) date 07/30/17 21:30:07*
%MOMM*%
%LPD*%
G01*
G04 APERTURE LIST*
%ADD10C,0.100000*%
%ADD11R,1.700000X1.700000*%
%ADD12O,1.700000X1.700000*%
%ADD13O,5.199380X2.598420*%
%ADD14R,1.800000X1.800000*%
%ADD15O,1.800000X1.800000*%
%ADD16C,1.422400*%
%ADD17C,1.520000*%
%ADD18C,2.700000*%
%ADD19C,1.000000*%
G04 APERTURE END LIST*
D10*
D11*
X233000000Y-68580000D03*
D12*
X233000000Y-71120000D03*
X233000000Y-73660000D03*
D11*
X240030000Y-43180000D03*
D12*
X237490000Y-43180000D03*
X234950000Y-43180000D03*
X232410000Y-43180000D03*
X229870000Y-43180000D03*
D11*
X250000000Y-60460000D03*
D12*
X250000000Y-63000000D03*
D11*
X250000000Y-52460000D03*
D12*
X250000000Y-55000000D03*
D13*
X222540000Y-79240000D03*
X222540000Y-74160000D03*
X222540000Y-69080000D03*
X222540000Y-64000000D03*
D14*
X228000000Y-69000000D03*
D15*
X228000000Y-71540000D03*
X228000000Y-74080000D03*
D16*
X239650000Y-78160000D03*
X237110000Y-76890000D03*
X239650000Y-75620000D03*
X237110000Y-74350000D03*
X239650000Y-73080000D03*
X237110000Y-71810000D03*
X239650000Y-70540000D03*
X237110000Y-69270000D03*
D17*
X219700000Y-51730000D03*
X219700000Y-54270000D03*
X217700000Y-54270000D03*
X217700000Y-51730000D03*
D18*
X215000000Y-47000000D03*
X215000000Y-59000000D03*
D19*
X250000000Y-60460000D02*
X250000000Y-58610000D01*
X248000000Y-54000000D02*
X249540000Y-52460000D01*
X250000000Y-58610000D02*
X248000000Y-56610000D01*
X248000000Y-56610000D02*
X248000000Y-54000000D01*
X249540000Y-52460000D02*
X250000000Y-52460000D01*
X233000000Y-68580000D02*
X233000000Y-66730000D01*
X233000000Y-66730000D02*
X239270000Y-60460000D01*
X239270000Y-60460000D02*
X248150000Y-60460000D01*
X248150000Y-60460000D02*
X250000000Y-60460000D01*
X228420000Y-68580000D02*
X228000000Y-69000000D01*
X228000000Y-69000000D02*
X227540000Y-69000000D01*
X227540000Y-69000000D02*
X222540000Y-64000000D01*
X233000000Y-71120000D02*
X233680000Y-71120000D01*
X233680000Y-71120000D02*
X235530000Y-69270000D01*
X235530000Y-69270000D02*
X237110000Y-69270000D01*
X233000000Y-73660000D02*
X235260000Y-73660000D01*
X235260000Y-73660000D02*
X237110000Y-71810000D01*
X222540000Y-79240000D02*
X222840000Y-79240000D01*
X222840000Y-79240000D02*
X228000000Y-74080000D01*
X228000000Y-71540000D02*
X237000000Y-80540000D01*
X237000000Y-80540000D02*
X240460000Y-80540000D01*
X240460000Y-80540000D02*
X242000000Y-79000000D01*
X242000000Y-72890000D02*
X239650000Y-70540000D01*
X242000000Y-79000000D02*
X242000000Y-72890000D01*
X222540000Y-69080000D02*
X225000000Y-71540000D01*
X225000000Y-71540000D02*
X228000000Y-71540000D01*
X222540000Y-69080000D02*
X222540000Y-74160000D01*
M02*
