M48
;DRILL file {KiCad 4.0.6} date 07/30/17 21:30:03
;FORMAT={-:-/ absolute / metric / decimal}
FMAT,2
METRIC,TZ
T1C0.810
T2C0.900
T3C1.000
T4C1.598
T5C2.300
T6C1.600
T7C1.800
T8C2.499
T9C3.200
T10C3.998
%
G90
G05
M71
T1
X217.7Y-51.73
X217.7Y-54.27
X219.7Y-51.73
X219.7Y-54.27
T2
X237.11Y-69.27
X237.11Y-71.81
X237.11Y-74.35
X237.11Y-76.89
X239.65Y-70.54
X239.65Y-73.08
X239.65Y-75.62
X239.65Y-78.16
T3
X228.Y-69.
X228.Y-71.54
X228.Y-74.08
X229.87Y-43.18
X232.41Y-43.18
X233.Y-68.58
X233.Y-71.12
X233.Y-73.66
X234.95Y-43.18
X237.49Y-43.18
X240.03Y-43.18
X250.Y-52.46
X250.Y-55.
X250.Y-60.46
X250.Y-63.
T4
X222.54Y-64.
X222.54Y-69.08
X222.54Y-74.16
X222.54Y-79.24
T5
X215.Y-47.
X215.Y-59.
T6
X209.296Y-69.342
T7
X213.796Y-69.342
T8
X220.Y-61.46
X220.Y-81.78
T9
X208.Y-44.
X208.Y-86.
X246.Y-68.
X246.Y-79.43
X250.Y-44.
X250.Y-86.
T10
X212.38Y-66.54
X212.38Y-76.7
T0
M30
