G04 #@! TF.FileFunction,Profile,NP*
%FSLAX46Y46*%
G04 Gerber Fmt 4.6, Leading zero omitted, Abs format (unit mm)*
G04 Created by KiCad (PCBNEW 4.0.6) date 07/30/17 21:30:07*
%MOMM*%
%LPD*%
G01*
G04 APERTURE LIST*
%ADD10C,0.100000*%
G04 APERTURE END LIST*
D10*
X250780300Y-40076859D02*
X251530700Y-40304474D01*
X251530700Y-40304474D02*
X252222300Y-40674118D01*
X252222300Y-40674118D02*
X252828400Y-41171570D01*
X252828400Y-41171570D02*
X253325900Y-41777710D01*
X253325900Y-41777710D02*
X253695500Y-42469250D01*
X253695500Y-42469250D02*
X253923100Y-43219640D01*
X253923100Y-43219640D02*
X254000000Y-44000000D01*
X254000000Y-44000000D02*
X254000000Y-86000000D01*
X254000000Y-86000000D02*
X253923100Y-86780300D01*
X253923100Y-86780300D02*
X253695500Y-87530700D01*
X253695500Y-87530700D02*
X253325900Y-88222300D01*
X253325900Y-88222300D02*
X252828400Y-88828400D01*
X252828400Y-88828400D02*
X252222300Y-89325900D01*
X252222300Y-89325900D02*
X251530700Y-89695500D01*
X251530700Y-89695500D02*
X250780300Y-89923100D01*
X250780300Y-89923100D02*
X250000000Y-90000000D01*
X250000000Y-90000000D02*
X208000000Y-90000000D01*
X208000000Y-90000000D02*
X207219640Y-89923100D01*
X207219640Y-89923100D02*
X206469250Y-89695500D01*
X206469250Y-89695500D02*
X205777710Y-89325900D01*
X205777710Y-89325900D02*
X205171570Y-88828400D01*
X205171570Y-88828400D02*
X204674118Y-88222300D01*
X204674118Y-88222300D02*
X204304474Y-87530700D01*
X204304474Y-87530700D02*
X204076859Y-86780300D01*
X204076859Y-86780300D02*
X204000000Y-86000000D01*
X204000000Y-86000000D02*
X204000000Y-44000000D01*
X204000000Y-44000000D02*
X204076859Y-43219640D01*
X204076859Y-43219640D02*
X204304474Y-42469250D01*
X204304474Y-42469250D02*
X204674118Y-41777710D01*
X204674118Y-41777710D02*
X205171570Y-41171570D01*
X205171570Y-41171570D02*
X205777710Y-40674118D01*
X205777710Y-40674118D02*
X206469250Y-40304474D01*
X206469250Y-40304474D02*
X207219640Y-40076859D01*
X207219640Y-40076859D02*
X207999980Y-40000000D01*
X207999980Y-40000000D02*
X250000000Y-40000000D01*
X250000000Y-40000000D02*
X250780300Y-40076859D01*
M02*
