G04 #@! TF.FileFunction,Legend,Top*
%FSLAX46Y46*%
G04 Gerber Fmt 4.6, Leading zero omitted, Abs format (unit mm)*
G04 Created by KiCad (PCBNEW 4.0.6) date 07/30/17 21:30:07*
%MOMM*%
%LPD*%
G01*
G04 APERTURE LIST*
%ADD10C,0.100000*%
%ADD11C,0.200000*%
%ADD12C,0.120000*%
%ADD13C,0.203200*%
%ADD14C,0.152400*%
%ADD15C,0.127000*%
%ADD16C,0.150000*%
%ADD17C,0.050000*%
G04 APERTURE END LIST*
D10*
D11*
X231800000Y-76400000D02*
X231400000Y-76000000D01*
X234200000Y-76400000D02*
X234600000Y-76000000D01*
X233000000Y-76400000D02*
X233000000Y-80750000D01*
X234200000Y-76400000D02*
X231800000Y-76400000D01*
X231576667Y-87590381D02*
X231576667Y-88304667D01*
X231529047Y-88447524D01*
X231433809Y-88542762D01*
X231290952Y-88590381D01*
X231195714Y-88590381D01*
X232052857Y-88590381D02*
X232052857Y-87590381D01*
X232433810Y-87590381D01*
X232529048Y-87638000D01*
X232576667Y-87685619D01*
X232624286Y-87780857D01*
X232624286Y-87923714D01*
X232576667Y-88018952D01*
X232529048Y-88066571D01*
X232433810Y-88114190D01*
X232052857Y-88114190D01*
X233005238Y-87685619D02*
X233052857Y-87638000D01*
X233148095Y-87590381D01*
X233386191Y-87590381D01*
X233481429Y-87638000D01*
X233529048Y-87685619D01*
X233576667Y-87780857D01*
X233576667Y-87876095D01*
X233529048Y-88018952D01*
X232957619Y-88590381D01*
X233576667Y-88590381D01*
X227838000Y-80772000D02*
X228346000Y-80772000D01*
X227838000Y-88900000D02*
X227838000Y-80772000D01*
X235204000Y-88900000D02*
X227838000Y-88900000D01*
X235204000Y-80772000D02*
X235204000Y-88900000D01*
X228092000Y-80772000D02*
X235204000Y-80772000D01*
X234045143Y-85050381D02*
X233568952Y-85050381D01*
X233521333Y-85526571D01*
X233568952Y-85478952D01*
X233664190Y-85431333D01*
X233902286Y-85431333D01*
X233997524Y-85478952D01*
X234045143Y-85526571D01*
X234092762Y-85621810D01*
X234092762Y-85859905D01*
X234045143Y-85955143D01*
X233997524Y-86002762D01*
X233902286Y-86050381D01*
X233664190Y-86050381D01*
X233568952Y-86002762D01*
X233521333Y-85955143D01*
X234426095Y-85383714D02*
X234664190Y-86050381D01*
X234902286Y-85383714D01*
X233172000Y-84328000D02*
X233172000Y-86868000D01*
X229044572Y-83510381D02*
X228473143Y-83510381D01*
X228758857Y-83510381D02*
X228758857Y-82510381D01*
X228663619Y-82653238D01*
X228568381Y-82748476D01*
X228473143Y-82796095D01*
X229425524Y-82605619D02*
X229473143Y-82558000D01*
X229568381Y-82510381D01*
X229806477Y-82510381D01*
X229901715Y-82558000D01*
X229949334Y-82605619D01*
X229996953Y-82700857D01*
X229996953Y-82796095D01*
X229949334Y-82938952D01*
X229377905Y-83510381D01*
X229996953Y-83510381D01*
X230330286Y-82843714D02*
X230568381Y-83510381D01*
X230806477Y-82843714D01*
X231394000Y-81788000D02*
X231394000Y-84328000D01*
X232664000Y-86868000D02*
G75*
G03X232664000Y-86868000I-508000J0D01*
G01*
X232664000Y-84328000D02*
G75*
G03X232664000Y-84328000I-508000J0D01*
G01*
X232664000Y-81788000D02*
G75*
G03X232664000Y-81788000I-508000J0D01*
G01*
X221361048Y-86177429D02*
X222122953Y-86177429D01*
X221361048Y-83891429D02*
X222122953Y-83891429D01*
X221742001Y-84272381D02*
X221742001Y-83510476D01*
D12*
X238896000Y-85182000D02*
X238896000Y-83982000D01*
X240656000Y-83982000D02*
X240656000Y-85182000D01*
X236356000Y-85182000D02*
X236356000Y-83982000D01*
X238116000Y-83982000D02*
X238116000Y-85182000D01*
X231670000Y-74990000D02*
X234330000Y-74990000D01*
X231670000Y-69850000D02*
X231670000Y-74990000D01*
X234330000Y-69850000D02*
X234330000Y-74990000D01*
X231670000Y-69850000D02*
X234330000Y-69850000D01*
X231670000Y-68580000D02*
X231670000Y-67250000D01*
X231670000Y-67250000D02*
X233000000Y-67250000D01*
X227830000Y-78398000D02*
X226830000Y-78398000D01*
X226830000Y-80098000D02*
X227830000Y-80098000D01*
X225290000Y-57570000D02*
X224290000Y-57570000D01*
X224290000Y-59270000D02*
X225290000Y-59270000D01*
X225290000Y-52490000D02*
X224290000Y-52490000D01*
X224290000Y-54190000D02*
X225290000Y-54190000D01*
X233180000Y-61810000D02*
X234180000Y-61810000D01*
X234180000Y-60110000D02*
X233180000Y-60110000D01*
X225290000Y-60110000D02*
X224290000Y-60110000D01*
X224290000Y-61810000D02*
X225290000Y-61810000D01*
X224290000Y-51650000D02*
X225290000Y-51650000D01*
X225290000Y-49950000D02*
X224290000Y-49950000D01*
X228540000Y-41850000D02*
X228540000Y-44510000D01*
X238760000Y-41850000D02*
X228540000Y-41850000D01*
X238760000Y-44510000D02*
X228540000Y-44510000D01*
X238760000Y-41850000D02*
X238760000Y-44510000D01*
X240030000Y-41850000D02*
X241360000Y-41850000D01*
X241360000Y-41850000D02*
X241360000Y-43180000D01*
X225390000Y-56760000D02*
X224190000Y-56760000D01*
X224190000Y-55000000D02*
X225390000Y-55000000D01*
X248670000Y-64330000D02*
X251330000Y-64330000D01*
X248670000Y-61730000D02*
X248670000Y-64330000D01*
X251330000Y-61730000D02*
X251330000Y-64330000D01*
X248670000Y-61730000D02*
X251330000Y-61730000D01*
X248670000Y-60460000D02*
X248670000Y-59130000D01*
X248670000Y-59130000D02*
X250000000Y-59130000D01*
X248670000Y-56330000D02*
X251330000Y-56330000D01*
X248670000Y-53730000D02*
X248670000Y-56330000D01*
X251330000Y-53730000D02*
X251330000Y-56330000D01*
X248670000Y-53730000D02*
X251330000Y-53730000D01*
X248670000Y-52460000D02*
X248670000Y-51130000D01*
X248670000Y-51130000D02*
X250000000Y-51130000D01*
D13*
X221638300Y-83067780D02*
X209517420Y-83067780D01*
X209517420Y-83067780D02*
X209517420Y-60172220D01*
X209517420Y-60172220D02*
X221638300Y-60172220D01*
X221638300Y-60172220D02*
X221638300Y-62295660D01*
X221638300Y-81119600D02*
X221638300Y-83067780D01*
D12*
X245870000Y-56190000D02*
X245870000Y-55260000D01*
X245870000Y-53030000D02*
X245870000Y-53960000D01*
X245870000Y-53030000D02*
X243710000Y-53030000D01*
X245870000Y-56190000D02*
X244410000Y-56190000D01*
X245870000Y-62540000D02*
X245870000Y-61610000D01*
X245870000Y-59380000D02*
X245870000Y-60310000D01*
X245870000Y-59380000D02*
X243710000Y-59380000D01*
X245870000Y-62540000D02*
X244410000Y-62540000D01*
X239150000Y-53940000D02*
X239150000Y-52740000D01*
X240910000Y-52740000D02*
X240910000Y-53940000D01*
X226686000Y-83728000D02*
X226686000Y-84928000D01*
X224926000Y-84928000D02*
X224926000Y-83728000D01*
X230620000Y-66420000D02*
X230620000Y-76660000D01*
X225979000Y-66420000D02*
X225979000Y-76660000D01*
X230620000Y-66420000D02*
X225979000Y-66420000D01*
X230620000Y-76660000D02*
X225979000Y-76660000D01*
X229110000Y-66420000D02*
X229110000Y-76660000D01*
X230620000Y-69690000D02*
X229110000Y-69690000D01*
X230620000Y-73391000D02*
X229110000Y-73391000D01*
D14*
X253620000Y-81590000D02*
X235880000Y-81590000D01*
X235880000Y-81590000D02*
X235880000Y-65840000D01*
X235880000Y-65840000D02*
X253620000Y-65840000D01*
X253620000Y-65840000D02*
X253620000Y-81590000D01*
D15*
X207296000Y-64842000D02*
X204296000Y-64842000D01*
X204296000Y-64842000D02*
X204296000Y-73842000D01*
X204296000Y-73842000D02*
X207296000Y-73842000D01*
X211196000Y-73842000D02*
X213496000Y-73842000D01*
X217296000Y-73842000D02*
X217696000Y-73842000D01*
X217696000Y-73842000D02*
X219096000Y-73842000D01*
X219096000Y-73842000D02*
X219096000Y-64842000D01*
X219096000Y-64842000D02*
X217696000Y-64842000D01*
X217696000Y-64842000D02*
X217296000Y-64842000D01*
X217696000Y-64842000D02*
X217696000Y-73842000D01*
X211196000Y-64842000D02*
X213496000Y-64842000D01*
X215296000Y-65342000D02*
X215296000Y-73342000D01*
X216196000Y-65342000D02*
X216196000Y-73342000D01*
D14*
X230731000Y-59425000D02*
X230731000Y-49025000D01*
X230731000Y-49025000D02*
X236581000Y-49025000D01*
X236581000Y-49025000D02*
X236581000Y-59425000D01*
X236581000Y-59425000D02*
X230731000Y-59425000D01*
X235992800Y-58543000D02*
G75*
G03X235992800Y-58543000I-304800J0D01*
G01*
D12*
X242000000Y-57260000D02*
X240100000Y-57260000D01*
X240600000Y-59580000D02*
X242000000Y-59580000D01*
X213350000Y-46900000D02*
X204710000Y-46900000D01*
X221730000Y-46900000D02*
X216650000Y-46900000D01*
X213350000Y-59100000D02*
X204710000Y-59100000D01*
X221730000Y-59100000D02*
X216650000Y-59100000D01*
X204710000Y-59100000D02*
X204710000Y-46900000D01*
X221730000Y-46900000D02*
X221730000Y-59100000D01*
X222566000Y-86636000D02*
X223966000Y-86636000D01*
X223966000Y-86636000D02*
X223966000Y-83836000D01*
X222566000Y-86636000D02*
X222566000Y-83836000D01*
D16*
X202222000Y-40689429D02*
X201714000Y-39963714D01*
X201351143Y-40689429D02*
X201351143Y-39165429D01*
X201931715Y-39165429D01*
X202076857Y-39238000D01*
X202149429Y-39310571D01*
X202222000Y-39455714D01*
X202222000Y-39673429D01*
X202149429Y-39818571D01*
X202076857Y-39891143D01*
X201931715Y-39963714D01*
X201351143Y-39963714D01*
X203455715Y-40616857D02*
X203310572Y-40689429D01*
X203020286Y-40689429D01*
X202875143Y-40616857D01*
X202802572Y-40471714D01*
X202802572Y-39891143D01*
X202875143Y-39746000D01*
X203020286Y-39673429D01*
X203310572Y-39673429D01*
X203455715Y-39746000D01*
X203528286Y-39891143D01*
X203528286Y-40036286D01*
X202802572Y-40181429D01*
X203963715Y-39673429D02*
X204544286Y-39673429D01*
X204181429Y-40689429D02*
X204181429Y-39383143D01*
X204254001Y-39238000D01*
X204399143Y-39165429D01*
X204544286Y-39165429D01*
X205270000Y-39165429D02*
X205270000Y-39528286D01*
X204907143Y-39383143D02*
X205270000Y-39528286D01*
X205632858Y-39383143D01*
X205052286Y-39818571D02*
X205270000Y-39528286D01*
X205487715Y-39818571D01*
X206431143Y-39165429D02*
X206431143Y-39528286D01*
X206068286Y-39383143D02*
X206431143Y-39528286D01*
X206794001Y-39383143D01*
X206213429Y-39818571D02*
X206431143Y-39528286D01*
X206648858Y-39818571D01*
X201242286Y-39165429D02*
X201750286Y-40689429D01*
X202258286Y-39165429D01*
X203419429Y-40689429D02*
X203419429Y-39891143D01*
X203346858Y-39746000D01*
X203201715Y-39673429D01*
X202911429Y-39673429D01*
X202766286Y-39746000D01*
X203419429Y-40616857D02*
X203274286Y-40689429D01*
X202911429Y-40689429D01*
X202766286Y-40616857D01*
X202693715Y-40471714D01*
X202693715Y-40326571D01*
X202766286Y-40181429D01*
X202911429Y-40108857D01*
X203274286Y-40108857D01*
X203419429Y-40036286D01*
X204362857Y-40689429D02*
X204217715Y-40616857D01*
X204145143Y-40471714D01*
X204145143Y-39165429D01*
X205161143Y-39165429D02*
X205161143Y-39528286D01*
X204798286Y-39383143D02*
X205161143Y-39528286D01*
X205524001Y-39383143D01*
X204943429Y-39818571D02*
X205161143Y-39528286D01*
X205378858Y-39818571D01*
X206322286Y-39165429D02*
X206322286Y-39528286D01*
X205959429Y-39383143D02*
X206322286Y-39528286D01*
X206685144Y-39383143D01*
X206104572Y-39818571D02*
X206322286Y-39528286D01*
X206540001Y-39818571D01*
X239609334Y-87574381D02*
X239276000Y-87098190D01*
X239037905Y-87574381D02*
X239037905Y-86574381D01*
X239418858Y-86574381D01*
X239514096Y-86622000D01*
X239561715Y-86669619D01*
X239609334Y-86764857D01*
X239609334Y-86907714D01*
X239561715Y-87002952D01*
X239514096Y-87050571D01*
X239418858Y-87098190D01*
X239037905Y-87098190D01*
X239990286Y-86669619D02*
X240037905Y-86622000D01*
X240133143Y-86574381D01*
X240371239Y-86574381D01*
X240466477Y-86622000D01*
X240514096Y-86669619D01*
X240561715Y-86764857D01*
X240561715Y-86860095D01*
X240514096Y-87002952D01*
X239942667Y-87574381D01*
X240561715Y-87574381D01*
X237069334Y-87574381D02*
X236736000Y-87098190D01*
X236497905Y-87574381D02*
X236497905Y-86574381D01*
X236878858Y-86574381D01*
X236974096Y-86622000D01*
X237021715Y-86669619D01*
X237069334Y-86764857D01*
X237069334Y-86907714D01*
X237021715Y-87002952D01*
X236974096Y-87050571D01*
X236878858Y-87098190D01*
X236497905Y-87098190D01*
X238021715Y-87574381D02*
X237450286Y-87574381D01*
X237736000Y-87574381D02*
X237736000Y-86574381D01*
X237640762Y-86717238D01*
X237545524Y-86812476D01*
X237450286Y-86860095D01*
X232166667Y-75144381D02*
X232166667Y-75858667D01*
X232119047Y-76001524D01*
X232023809Y-76096762D01*
X231880952Y-76144381D01*
X231785714Y-76144381D01*
X232642857Y-76144381D02*
X232642857Y-75144381D01*
X233023810Y-75144381D01*
X233119048Y-75192000D01*
X233166667Y-75239619D01*
X233214286Y-75334857D01*
X233214286Y-75477714D01*
X233166667Y-75572952D01*
X233119048Y-75620571D01*
X233023810Y-75668190D01*
X232642857Y-75668190D01*
X233595238Y-75239619D02*
X233642857Y-75192000D01*
X233738095Y-75144381D01*
X233976191Y-75144381D01*
X234071429Y-75192000D01*
X234119048Y-75239619D01*
X234166667Y-75334857D01*
X234166667Y-75430095D01*
X234119048Y-75572952D01*
X233547619Y-76144381D01*
X234166667Y-76144381D01*
X229703334Y-79605143D02*
X229655715Y-79652762D01*
X229512858Y-79700381D01*
X229417620Y-79700381D01*
X229274762Y-79652762D01*
X229179524Y-79557524D01*
X229131905Y-79462286D01*
X229084286Y-79271810D01*
X229084286Y-79128952D01*
X229131905Y-78938476D01*
X229179524Y-78843238D01*
X229274762Y-78748000D01*
X229417620Y-78700381D01*
X229512858Y-78700381D01*
X229655715Y-78748000D01*
X229703334Y-78795619D01*
X230655715Y-79700381D02*
X230084286Y-79700381D01*
X230370000Y-79700381D02*
X230370000Y-78700381D01*
X230274762Y-78843238D01*
X230179524Y-78938476D01*
X230084286Y-78986095D01*
X227163334Y-58777143D02*
X227115715Y-58824762D01*
X226972858Y-58872381D01*
X226877620Y-58872381D01*
X226734762Y-58824762D01*
X226639524Y-58729524D01*
X226591905Y-58634286D01*
X226544286Y-58443810D01*
X226544286Y-58300952D01*
X226591905Y-58110476D01*
X226639524Y-58015238D01*
X226734762Y-57920000D01*
X226877620Y-57872381D01*
X226972858Y-57872381D01*
X227115715Y-57920000D01*
X227163334Y-57967619D01*
X227544286Y-57967619D02*
X227591905Y-57920000D01*
X227687143Y-57872381D01*
X227925239Y-57872381D01*
X228020477Y-57920000D01*
X228068096Y-57967619D01*
X228115715Y-58062857D01*
X228115715Y-58158095D01*
X228068096Y-58300952D01*
X227496667Y-58872381D01*
X228115715Y-58872381D01*
X227163334Y-53697143D02*
X227115715Y-53744762D01*
X226972858Y-53792381D01*
X226877620Y-53792381D01*
X226734762Y-53744762D01*
X226639524Y-53649524D01*
X226591905Y-53554286D01*
X226544286Y-53363810D01*
X226544286Y-53220952D01*
X226591905Y-53030476D01*
X226639524Y-52935238D01*
X226734762Y-52840000D01*
X226877620Y-52792381D01*
X226972858Y-52792381D01*
X227115715Y-52840000D01*
X227163334Y-52887619D01*
X227496667Y-52792381D02*
X228115715Y-52792381D01*
X227782381Y-53173333D01*
X227925239Y-53173333D01*
X228020477Y-53220952D01*
X228068096Y-53268571D01*
X228115715Y-53363810D01*
X228115715Y-53601905D01*
X228068096Y-53697143D01*
X228020477Y-53744762D01*
X227925239Y-53792381D01*
X227639524Y-53792381D01*
X227544286Y-53744762D01*
X227496667Y-53697143D01*
X236053334Y-61317143D02*
X236005715Y-61364762D01*
X235862858Y-61412381D01*
X235767620Y-61412381D01*
X235624762Y-61364762D01*
X235529524Y-61269524D01*
X235481905Y-61174286D01*
X235434286Y-60983810D01*
X235434286Y-60840952D01*
X235481905Y-60650476D01*
X235529524Y-60555238D01*
X235624762Y-60460000D01*
X235767620Y-60412381D01*
X235862858Y-60412381D01*
X236005715Y-60460000D01*
X236053334Y-60507619D01*
X236910477Y-60745714D02*
X236910477Y-61412381D01*
X236672381Y-60364762D02*
X236434286Y-61079048D01*
X237053334Y-61079048D01*
X227163334Y-61317143D02*
X227115715Y-61364762D01*
X226972858Y-61412381D01*
X226877620Y-61412381D01*
X226734762Y-61364762D01*
X226639524Y-61269524D01*
X226591905Y-61174286D01*
X226544286Y-60983810D01*
X226544286Y-60840952D01*
X226591905Y-60650476D01*
X226639524Y-60555238D01*
X226734762Y-60460000D01*
X226877620Y-60412381D01*
X226972858Y-60412381D01*
X227115715Y-60460000D01*
X227163334Y-60507619D01*
X228068096Y-60412381D02*
X227591905Y-60412381D01*
X227544286Y-60888571D01*
X227591905Y-60840952D01*
X227687143Y-60793333D01*
X227925239Y-60793333D01*
X228020477Y-60840952D01*
X228068096Y-60888571D01*
X228115715Y-60983810D01*
X228115715Y-61221905D01*
X228068096Y-61317143D01*
X228020477Y-61364762D01*
X227925239Y-61412381D01*
X227687143Y-61412381D01*
X227591905Y-61364762D01*
X227544286Y-61317143D01*
X227163334Y-51157143D02*
X227115715Y-51204762D01*
X226972858Y-51252381D01*
X226877620Y-51252381D01*
X226734762Y-51204762D01*
X226639524Y-51109524D01*
X226591905Y-51014286D01*
X226544286Y-50823810D01*
X226544286Y-50680952D01*
X226591905Y-50490476D01*
X226639524Y-50395238D01*
X226734762Y-50300000D01*
X226877620Y-50252381D01*
X226972858Y-50252381D01*
X227115715Y-50300000D01*
X227163334Y-50347619D01*
X228020477Y-50252381D02*
X227830000Y-50252381D01*
X227734762Y-50300000D01*
X227687143Y-50347619D01*
X227591905Y-50490476D01*
X227544286Y-50680952D01*
X227544286Y-51061905D01*
X227591905Y-51157143D01*
X227639524Y-51204762D01*
X227734762Y-51252381D01*
X227925239Y-51252381D01*
X228020477Y-51204762D01*
X228068096Y-51157143D01*
X228115715Y-51061905D01*
X228115715Y-50823810D01*
X228068096Y-50728571D01*
X228020477Y-50680952D01*
X227925239Y-50633333D01*
X227734762Y-50633333D01*
X227639524Y-50680952D01*
X227591905Y-50728571D01*
X227544286Y-50823810D01*
X243006667Y-42632381D02*
X243006667Y-43346667D01*
X242959047Y-43489524D01*
X242863809Y-43584762D01*
X242720952Y-43632381D01*
X242625714Y-43632381D01*
X243482857Y-43632381D02*
X243482857Y-42632381D01*
X243863810Y-42632381D01*
X243959048Y-42680000D01*
X244006667Y-42727619D01*
X244054286Y-42822857D01*
X244054286Y-42965714D01*
X244006667Y-43060952D01*
X243959048Y-43108571D01*
X243863810Y-43156190D01*
X243482857Y-43156190D01*
X245006667Y-43632381D02*
X244435238Y-43632381D01*
X244720952Y-43632381D02*
X244720952Y-42632381D01*
X244625714Y-42775238D01*
X244530476Y-42870476D01*
X244435238Y-42918095D01*
X227163334Y-56332381D02*
X226687143Y-56332381D01*
X226687143Y-55332381D01*
X228020477Y-56332381D02*
X227449048Y-56332381D01*
X227734762Y-56332381D02*
X227734762Y-55332381D01*
X227639524Y-55475238D01*
X227544286Y-55570476D01*
X227449048Y-55618095D01*
X248833333Y-58582381D02*
X248833333Y-57582381D01*
X249214286Y-57582381D01*
X249309524Y-57630000D01*
X249357143Y-57677619D01*
X249404762Y-57772857D01*
X249404762Y-57915714D01*
X249357143Y-58010952D01*
X249309524Y-58058571D01*
X249214286Y-58106190D01*
X248833333Y-58106190D01*
X249690476Y-57582381D02*
X250023809Y-58582381D01*
X250357143Y-57582381D01*
X251214286Y-58582381D02*
X250642857Y-58582381D01*
X250928571Y-58582381D02*
X250928571Y-57582381D01*
X250833333Y-57725238D01*
X250738095Y-57820476D01*
X250642857Y-57868095D01*
X248833333Y-50582381D02*
X248833333Y-49582381D01*
X249214286Y-49582381D01*
X249309524Y-49630000D01*
X249357143Y-49677619D01*
X249404762Y-49772857D01*
X249404762Y-49915714D01*
X249357143Y-50010952D01*
X249309524Y-50058571D01*
X249214286Y-50106190D01*
X248833333Y-50106190D01*
X249690476Y-49582381D02*
X250023809Y-50582381D01*
X250357143Y-49582381D01*
X250642857Y-49677619D02*
X250690476Y-49630000D01*
X250785714Y-49582381D01*
X251023810Y-49582381D01*
X251119048Y-49630000D01*
X251166667Y-49677619D01*
X251214286Y-49772857D01*
X251214286Y-49868095D01*
X251166667Y-50010952D01*
X250595238Y-50582381D01*
X251214286Y-50582381D01*
X214611857Y-85035571D02*
X214551381Y-85096048D01*
X214369952Y-85156524D01*
X214249000Y-85156524D01*
X214067572Y-85096048D01*
X213946619Y-84975095D01*
X213886143Y-84854143D01*
X213825667Y-84612238D01*
X213825667Y-84430810D01*
X213886143Y-84188905D01*
X213946619Y-84067952D01*
X214067572Y-83947000D01*
X214249000Y-83886524D01*
X214369952Y-83886524D01*
X214551381Y-83947000D01*
X214611857Y-84007476D01*
X215398048Y-83886524D02*
X215639952Y-83886524D01*
X215760905Y-83947000D01*
X215881857Y-84067952D01*
X215942333Y-84309857D01*
X215942333Y-84733190D01*
X215881857Y-84975095D01*
X215760905Y-85096048D01*
X215639952Y-85156524D01*
X215398048Y-85156524D01*
X215277095Y-85096048D01*
X215156143Y-84975095D01*
X215095667Y-84733190D01*
X215095667Y-84309857D01*
X215156143Y-84067952D01*
X215277095Y-83947000D01*
X215398048Y-83886524D01*
X216486619Y-85156524D02*
X216486619Y-83886524D01*
X217212333Y-85156524D01*
X217212333Y-83886524D01*
X217756619Y-84007476D02*
X217817095Y-83947000D01*
X217938047Y-83886524D01*
X218240428Y-83886524D01*
X218361381Y-83947000D01*
X218421857Y-84007476D01*
X218482333Y-84128429D01*
X218482333Y-84249381D01*
X218421857Y-84430810D01*
X217696143Y-85156524D01*
X218482333Y-85156524D01*
X245014762Y-57697619D02*
X244919524Y-57650000D01*
X244824286Y-57554762D01*
X244681429Y-57411905D01*
X244586190Y-57364286D01*
X244490952Y-57364286D01*
X244538571Y-57602381D02*
X244443333Y-57554762D01*
X244348095Y-57459524D01*
X244300476Y-57269048D01*
X244300476Y-56935714D01*
X244348095Y-56745238D01*
X244443333Y-56650000D01*
X244538571Y-56602381D01*
X244729048Y-56602381D01*
X244824286Y-56650000D01*
X244919524Y-56745238D01*
X244967143Y-56935714D01*
X244967143Y-57269048D01*
X244919524Y-57459524D01*
X244824286Y-57554762D01*
X244729048Y-57602381D01*
X244538571Y-57602381D01*
X245300476Y-56602381D02*
X245919524Y-56602381D01*
X245586190Y-56983333D01*
X245729048Y-56983333D01*
X245824286Y-57030952D01*
X245871905Y-57078571D01*
X245919524Y-57173810D01*
X245919524Y-57411905D01*
X245871905Y-57507143D01*
X245824286Y-57554762D01*
X245729048Y-57602381D01*
X245443333Y-57602381D01*
X245348095Y-57554762D01*
X245300476Y-57507143D01*
X245014762Y-64047619D02*
X244919524Y-64000000D01*
X244824286Y-63904762D01*
X244681429Y-63761905D01*
X244586190Y-63714286D01*
X244490952Y-63714286D01*
X244538571Y-63952381D02*
X244443333Y-63904762D01*
X244348095Y-63809524D01*
X244300476Y-63619048D01*
X244300476Y-63285714D01*
X244348095Y-63095238D01*
X244443333Y-63000000D01*
X244538571Y-62952381D01*
X244729048Y-62952381D01*
X244824286Y-63000000D01*
X244919524Y-63095238D01*
X244967143Y-63285714D01*
X244967143Y-63619048D01*
X244919524Y-63809524D01*
X244824286Y-63904762D01*
X244729048Y-63952381D01*
X244538571Y-63952381D01*
X245824286Y-63285714D02*
X245824286Y-63952381D01*
X245586190Y-62904762D02*
X245348095Y-63619048D01*
X245967143Y-63619048D01*
X239863334Y-56332381D02*
X239530000Y-55856190D01*
X239291905Y-56332381D02*
X239291905Y-55332381D01*
X239672858Y-55332381D01*
X239768096Y-55380000D01*
X239815715Y-55427619D01*
X239863334Y-55522857D01*
X239863334Y-55665714D01*
X239815715Y-55760952D01*
X239768096Y-55808571D01*
X239672858Y-55856190D01*
X239291905Y-55856190D01*
X240196667Y-55332381D02*
X240815715Y-55332381D01*
X240482381Y-55713333D01*
X240625239Y-55713333D01*
X240720477Y-55760952D01*
X240768096Y-55808571D01*
X240815715Y-55903810D01*
X240815715Y-56141905D01*
X240768096Y-56237143D01*
X240720477Y-56284762D01*
X240625239Y-56332381D01*
X240339524Y-56332381D01*
X240244286Y-56284762D01*
X240196667Y-56237143D01*
X225639334Y-87320381D02*
X225306000Y-86844190D01*
X225067905Y-87320381D02*
X225067905Y-86320381D01*
X225448858Y-86320381D01*
X225544096Y-86368000D01*
X225591715Y-86415619D01*
X225639334Y-86510857D01*
X225639334Y-86653714D01*
X225591715Y-86748952D01*
X225544096Y-86796571D01*
X225448858Y-86844190D01*
X225067905Y-86844190D01*
X226544096Y-86320381D02*
X226067905Y-86320381D01*
X226020286Y-86796571D01*
X226067905Y-86748952D01*
X226163143Y-86701333D01*
X226401239Y-86701333D01*
X226496477Y-86748952D01*
X226544096Y-86796571D01*
X226591715Y-86891810D01*
X226591715Y-87129905D01*
X226544096Y-87225143D01*
X226496477Y-87272762D01*
X226401239Y-87320381D01*
X226163143Y-87320381D01*
X226067905Y-87272762D01*
X226020286Y-87225143D01*
X226568095Y-76922381D02*
X226568095Y-77731905D01*
X226615714Y-77827143D01*
X226663333Y-77874762D01*
X226758571Y-77922381D01*
X226949048Y-77922381D01*
X227044286Y-77874762D01*
X227091905Y-77827143D01*
X227139524Y-77731905D01*
X227139524Y-76922381D01*
X228139524Y-77922381D02*
X227568095Y-77922381D01*
X227853809Y-77922381D02*
X227853809Y-76922381D01*
X227758571Y-77065238D01*
X227663333Y-77160476D01*
X227568095Y-77208095D01*
X241760476Y-81748381D02*
X242427143Y-82748381D01*
X242427143Y-81748381D02*
X241760476Y-82748381D01*
X243331905Y-82748381D02*
X242760476Y-82748381D01*
X243046190Y-82748381D02*
X243046190Y-81748381D01*
X242950952Y-81891238D01*
X242855714Y-81986476D01*
X242760476Y-82034095D01*
D17*
X255587381Y-73532857D02*
X255111190Y-73866191D01*
X255587381Y-74104286D02*
X254587381Y-74104286D01*
X254587381Y-73723333D01*
X254635000Y-73628095D01*
X254682619Y-73580476D01*
X254777857Y-73532857D01*
X254920714Y-73532857D01*
X255015952Y-73580476D01*
X255063571Y-73628095D01*
X255111190Y-73723333D01*
X255111190Y-74104286D01*
X254587381Y-72818571D02*
X255301667Y-72818571D01*
X255444524Y-72866191D01*
X255539762Y-72961429D01*
X255587381Y-73104286D01*
X255587381Y-73199524D01*
X254920714Y-71913809D02*
X255587381Y-71913809D01*
X254539762Y-72151905D02*
X255254048Y-72390000D01*
X255254048Y-71770952D01*
X254587381Y-70913809D02*
X254587381Y-71390000D01*
X255063571Y-71437619D01*
X255015952Y-71390000D01*
X254968333Y-71294762D01*
X254968333Y-71056666D01*
X255015952Y-70961428D01*
X255063571Y-70913809D01*
X255158810Y-70866190D01*
X255396905Y-70866190D01*
X255492143Y-70913809D01*
X255539762Y-70961428D01*
X255587381Y-71056666D01*
X255587381Y-71294762D01*
X255539762Y-71390000D01*
X255492143Y-71437619D01*
X255206429Y-70437619D02*
X255206429Y-69675714D01*
X254587381Y-68770952D02*
X254587381Y-68961429D01*
X254635000Y-69056667D01*
X254682619Y-69104286D01*
X254825476Y-69199524D01*
X255015952Y-69247143D01*
X255396905Y-69247143D01*
X255492143Y-69199524D01*
X255539762Y-69151905D01*
X255587381Y-69056667D01*
X255587381Y-68866190D01*
X255539762Y-68770952D01*
X255492143Y-68723333D01*
X255396905Y-68675714D01*
X255158810Y-68675714D01*
X255063571Y-68723333D01*
X255015952Y-68770952D01*
X254968333Y-68866190D01*
X254968333Y-69056667D01*
X255015952Y-69151905D01*
X255063571Y-69199524D01*
X255158810Y-69247143D01*
X255587381Y-67770952D02*
X255587381Y-68247143D01*
X254587381Y-68247143D01*
X255206429Y-67437619D02*
X255206429Y-66675714D01*
X255063571Y-65866190D02*
X255111190Y-65723333D01*
X255158810Y-65675714D01*
X255254048Y-65628095D01*
X255396905Y-65628095D01*
X255492143Y-65675714D01*
X255539762Y-65723333D01*
X255587381Y-65818571D01*
X255587381Y-66199524D01*
X254587381Y-66199524D01*
X254587381Y-65866190D01*
X254635000Y-65770952D01*
X254682619Y-65723333D01*
X254777857Y-65675714D01*
X254873095Y-65675714D01*
X254968333Y-65723333D01*
X255015952Y-65770952D01*
X255063571Y-65866190D01*
X255063571Y-66199524D01*
D16*
X204785715Y-75357143D02*
X204738096Y-75404762D01*
X204595239Y-75452381D01*
X204500001Y-75452381D01*
X204357143Y-75404762D01*
X204261905Y-75309524D01*
X204214286Y-75214286D01*
X204166667Y-75023810D01*
X204166667Y-74880952D01*
X204214286Y-74690476D01*
X204261905Y-74595238D01*
X204357143Y-74500000D01*
X204500001Y-74452381D01*
X204595239Y-74452381D01*
X204738096Y-74500000D01*
X204785715Y-74547619D01*
X205404762Y-74452381D02*
X205595239Y-74452381D01*
X205690477Y-74500000D01*
X205785715Y-74595238D01*
X205833334Y-74785714D01*
X205833334Y-75119048D01*
X205785715Y-75309524D01*
X205690477Y-75404762D01*
X205595239Y-75452381D01*
X205404762Y-75452381D01*
X205309524Y-75404762D01*
X205214286Y-75309524D01*
X205166667Y-75119048D01*
X205166667Y-74785714D01*
X205214286Y-74595238D01*
X205309524Y-74500000D01*
X205404762Y-74452381D01*
X206261905Y-75452381D02*
X206261905Y-74452381D01*
X206833334Y-75452381D01*
X206833334Y-74452381D01*
X207833334Y-75452381D02*
X207261905Y-75452381D01*
X207547619Y-75452381D02*
X207547619Y-74452381D01*
X207452381Y-74595238D01*
X207357143Y-74690476D01*
X207261905Y-74738095D01*
X229838095Y-59852381D02*
X229838095Y-60661905D01*
X229885714Y-60757143D01*
X229933333Y-60804762D01*
X230028571Y-60852381D01*
X230219048Y-60852381D01*
X230314286Y-60804762D01*
X230361905Y-60757143D01*
X230409524Y-60661905D01*
X230409524Y-59852381D01*
X230838095Y-59947619D02*
X230885714Y-59900000D01*
X230980952Y-59852381D01*
X231219048Y-59852381D01*
X231314286Y-59900000D01*
X231361905Y-59947619D01*
X231409524Y-60042857D01*
X231409524Y-60138095D01*
X231361905Y-60280952D01*
X230790476Y-60852381D01*
X231409524Y-60852381D01*
D17*
X233584571Y-56539285D02*
X233584571Y-56839285D01*
X234108381Y-56839285D02*
X233108381Y-56839285D01*
X233108381Y-56410714D01*
X233108381Y-56196428D02*
X233108381Y-55682142D01*
X234108381Y-55939285D02*
X233108381Y-55939285D01*
X233203619Y-55424999D02*
X233156000Y-55382142D01*
X233108381Y-55296428D01*
X233108381Y-55082142D01*
X233156000Y-54996428D01*
X233203619Y-54953571D01*
X233298857Y-54910714D01*
X233394095Y-54910714D01*
X233536952Y-54953571D01*
X234108381Y-55467857D01*
X234108381Y-54910714D01*
X233108381Y-54610714D02*
X233108381Y-54053571D01*
X233489333Y-54353571D01*
X233489333Y-54224999D01*
X233536952Y-54139285D01*
X233584571Y-54096428D01*
X233679810Y-54053571D01*
X233917905Y-54053571D01*
X234013143Y-54096428D01*
X234060762Y-54139285D01*
X234108381Y-54224999D01*
X234108381Y-54482142D01*
X234060762Y-54567856D01*
X234013143Y-54610714D01*
X233203619Y-53710713D02*
X233156000Y-53667856D01*
X233108381Y-53582142D01*
X233108381Y-53367856D01*
X233156000Y-53282142D01*
X233203619Y-53239285D01*
X233298857Y-53196428D01*
X233394095Y-53196428D01*
X233536952Y-53239285D01*
X234108381Y-53753571D01*
X234108381Y-53196428D01*
X234108381Y-52296428D02*
X233632190Y-52596428D01*
X234108381Y-52810713D02*
X233108381Y-52810713D01*
X233108381Y-52467856D01*
X233156000Y-52382142D01*
X233203619Y-52339285D01*
X233298857Y-52296428D01*
X233441714Y-52296428D01*
X233536952Y-52339285D01*
X233584571Y-52382142D01*
X233632190Y-52467856D01*
X233632190Y-52810713D01*
X234108381Y-51482142D02*
X234108381Y-51910713D01*
X233108381Y-51910713D01*
D16*
X240538095Y-60452381D02*
X240538095Y-61261905D01*
X240585714Y-61357143D01*
X240633333Y-61404762D01*
X240728571Y-61452381D01*
X240919048Y-61452381D01*
X241014286Y-61404762D01*
X241061905Y-61357143D01*
X241109524Y-61261905D01*
X241109524Y-60452381D01*
X241490476Y-60452381D02*
X242109524Y-60452381D01*
X241776190Y-60833333D01*
X241919048Y-60833333D01*
X242014286Y-60880952D01*
X242061905Y-60928571D01*
X242109524Y-61023810D01*
X242109524Y-61261905D01*
X242061905Y-61357143D01*
X242014286Y-61404762D01*
X241919048Y-61452381D01*
X241633333Y-61452381D01*
X241538095Y-61404762D01*
X241490476Y-61357143D01*
X209102381Y-53738095D02*
X208102381Y-53738095D01*
X208102381Y-53357142D01*
X208150000Y-53261904D01*
X208197619Y-53214285D01*
X208292857Y-53166666D01*
X208435714Y-53166666D01*
X208530952Y-53214285D01*
X208578571Y-53261904D01*
X208626190Y-53357142D01*
X208626190Y-53738095D01*
X209102381Y-52214285D02*
X209102381Y-52785714D01*
X209102381Y-52500000D02*
X208102381Y-52500000D01*
X208245238Y-52595238D01*
X208340476Y-52690476D01*
X208388095Y-52785714D01*
X222527905Y-87828381D02*
X222527905Y-86828381D01*
X222766000Y-86828381D01*
X222908858Y-86876000D01*
X223004096Y-86971238D01*
X223051715Y-87066476D01*
X223099334Y-87256952D01*
X223099334Y-87399810D01*
X223051715Y-87590286D01*
X223004096Y-87685524D01*
X222908858Y-87780762D01*
X222766000Y-87828381D01*
X222527905Y-87828381D01*
X224051715Y-87828381D02*
X223480286Y-87828381D01*
X223766000Y-87828381D02*
X223766000Y-86828381D01*
X223670762Y-86971238D01*
X223575524Y-87066476D01*
X223480286Y-87114095D01*
M02*
